<?xml version="1.0" encoding="utf-8"?>
<!-- Generator: Adobe Illustrator 26.4.0, SVG Export Plug-In . SVG Version: 6.00 Build 0)  -->
<svg version="1.1" id="레이어_1" xmlns="http://www.w3.org/2000/svg" xmlns:xlink="http://www.w3.org/1999/xlink" x="0px"
	 y="0px" viewBox="0 0 50 50" style="enable-background:new 0 0 50 50;" xml:space="preserve">
<style type="text/css">
	.st0{fill:#FFFFFF;}
</style>
<path class="st0" d="M2.85,34.18c0-1.21,0-2.42,0-3.64c0.03-0.18,0.05-0.36,0.08-0.55c0.16-1.36,0.25-2.73,0.48-4.08
	c0.92-5.35,3.04-10.22,6.03-14.72c0.1-0.16,0.27-0.3,0.44-0.38c2.74-1.25,5.6-2.12,8.56-2.67c0.24-0.04,0.37,0.01,0.48,0.23
	c0.27,0.57,0.59,1.12,0.84,1.71c0.14,0.33,0.31,0.39,0.65,0.36c1.32-0.13,2.64-0.31,3.96-0.3c1.77,0.02,3.54,0.19,5.3,0.31
	c0.3,0.02,0.46-0.03,0.58-0.33c0.25-0.6,0.57-1.16,0.84-1.75c0.11-0.22,0.25-0.27,0.48-0.22c2.92,0.53,5.73,1.39,8.44,2.61
	c0.23,0.1,0.46,0.3,0.6,0.51c5.02,7.48,7.21,15.69,6.37,24.68c-0.01,0.16-0.12,0.36-0.24,0.46c-3.26,2.38-6.81,4.19-10.67,5.41
	c-0.29,0.09-0.42,0.01-0.56-0.21c-0.53-0.84-1.07-1.68-1.59-2.52c-0.2-0.33-0.37-0.68-0.55-1.01c1.26-0.6,2.47-1.19,3.69-1.78
	c-0.53-0.75-0.8-0.84-1.47-0.54c-4.91,2.13-9.99,2.77-15.26,1.81c-2.11-0.38-4.13-1.02-6.09-1.88c-0.17-0.07-0.41-0.16-0.55-0.09
	c-0.27,0.13-0.49,0.37-0.86,0.65c1.33,0.64,2.55,1.23,3.86,1.87c-0.78,1.23-1.54,2.41-2.29,3.6c-0.16,0.25-0.34,0.14-0.53,0.08
	c-3.81-1.21-7.33-2.99-10.55-5.35c-0.16-0.11-0.27-0.36-0.3-0.56C2.93,35.32,2.9,34.75,2.85,34.18z M36.42,26.63
	c-0.11-0.55-0.17-1.11-0.35-1.64c-0.95-2.76-4.13-3.66-6.2-1.79c-1.94,1.75-1.96,5.11-0.04,6.89c1.54,1.44,3.76,1.39,5.24-0.12
	C35.96,29.06,36.35,27.93,36.42,26.63z M21.74,26.61c-0.18-0.67-0.28-1.39-0.57-2.01c-1.13-2.5-4.14-3.16-6.06-1.35
	c-1.89,1.77-1.92,4.99-0.07,6.8c1.52,1.48,3.77,1.47,5.26-0.03C21.23,29.08,21.62,27.93,21.74,26.61z"/>
</svg>
