<?xml version="1.0" encoding="utf-8"?>
<!-- Generator: Adobe Illustrator 26.4.0, SVG Export Plug-In . SVG Version: 6.00 Build 0)  -->
<svg version="1.1" id="레이어_1" xmlns="http://www.w3.org/2000/svg" xmlns:xlink="http://www.w3.org/1999/xlink" x="0px"
	 y="0px" viewBox="0 0 252.66 252.66" style="enable-background:new 0 0 252.66 252.66;" xml:space="preserve">
<style type="text/css">
	.st0{fill:#9AE4B5;}
	.st1{fill:none;stroke:#000000;stroke-width:4;stroke-linecap:round;stroke-linejoin:round;stroke-miterlimit:10;}
	.st2{fill:#FFFFFF;stroke:#000000;stroke-width:4;stroke-linecap:round;stroke-linejoin:round;stroke-miterlimit:10;}
	.st3{fill:#B3F1CD;}
	.st4{opacity:0.6;fill:#FFFFFF;}
	.st5{fill:none;}
	.st6{fill:#FFFFFF;}
	.st7{stroke:#000000;stroke-width:4;stroke-linecap:round;stroke-linejoin:round;stroke-miterlimit:10;}
</style>
<g>
	<path class="st0" d="M202.73,178.29c0.77-1.51,0.85-3.28,0.23-4.86c-3.65-9.26-8.85-18.3-10.91-23.51c-0.84-2.13-0.65-6.13,0-8.33
		c0.76-2.58,1.42-4.98,1.98-7.18l0,0c-0.46-3.91-4.84-5.99-8.17-3.89c-7.89,4.98-18.42,18.05-11.67,51.82
		c0,0.01,0.01,0.03,0.01,0.04c0.42,2.12,1.97,3.83,4.03,4.47C192.91,191.39,199.71,184.21,202.73,178.29z"/>
	<path class="st1" d="M194.12,134.41c-0.56,2.2-1.22,4.6-1.98,7.18c-0.65,2.2-0.84,6.19,0,8.33c2.09,5.28,7.39,14.47,11.04,23.85"/>
</g>
<g>
	<path class="st2" d="M183.11,199.44l7.56-2.6c0.68-0.24,1.39,0.28,1.38,1c-0.02,2.33-0.63,7.05-4.64,11.04
		c-1.4,1.4-3.42,0.55-3.67-1.43L183.11,199.44z"/>
	<path class="st2" d="M190.6,200.57l7.27-3.98c0.74-0.4,1.66,0.04,1.78,0.88c0.38,2.49,0.51,7.4-2.88,12.16
		c-1.21,1.7-3.46,1.18-4.07-0.83L190.6,200.57z"/>
	<path class="st2" d="M197.21,200.22l7.82-4.28c0,0,2.06,6.35-2.27,12.44c-1.09,1.53-3.11,1.07-3.66-0.75L197.21,200.22z"/>
	<path class="st0" d="M174.21,182.39c2.36,11.79,2.8,9.43,4.21,13.44c0.63,1.81,2.16,3.15,4.02,3.6c11.5,2.74,18.69-0.25,21.64-1.98
		c1.05-0.62,1.82-1.62,2.15-2.79c1.63-5.82-0.23-13.4-3.13-20.86C185.71,173.47,177.33,179.39,174.21,182.39z"/>
	<path class="st1" d="M203.18,173.78c2.9,7.45,4.76,15.01,3.15,20.84c-0.33,1.19-1.1,2.21-2.16,2.83
		c-2.96,1.73-10.15,4.73-21.66,1.98c-1.85-0.44-3.01-1.95-3.99-3.58c-0.87-1.43-1.7-3.06-4.23-13.5"/>
	<path class="st2" d="M206.98,191.12c0,0,0.61,4.21,0.55,7.68c-0.02,1.02-1.2,1.57-1.99,0.93l-5.55-4.52
		c-0.47-0.39-0.51-1.09-0.08-1.53C201.1,192.46,203.65,190.44,206.98,191.12z"/>
</g>
<g>
	<path class="st0" d="M164.48,232.55c7.17-0.47,12.47-2.37,16.33-4.61c4.21-2.45,6.64-7.11,6.28-11.96
		c-0.18-2.5-0.48-5.15-0.93-7.94c-3.18-19.69-0.65-18.47,1.88-29.27c0-0.02,0.01-0.04,0.01-0.06c1.03-4.39-2.28-8.61-6.79-8.66
		c-7.41-0.09-15.08,1.86-23.69,5.24c-2.78,1.09-36.52,18.91-32.24,29.26c1.88,4.56,5.74,3.14,10.58,7.18
		c3.64,3.04,5,7.51,5.85,12.44c0,0.01,0,0.01,0,0.02c0.23,1.35,0.94,2.57,2.01,3.42C147.26,230.36,153.57,233.26,164.48,232.55z"/>
	<path class="st1" d="M142.03,225.96c-0.07-0.58-0.16-1.18-0.27-1.8c-2.4-13.97-10.69-15.11-10.69-15.11"/>
	<path class="st1" d="M186,185.86c-1.47,4.72-2.11,8.12,0.16,22.18c0.55,3.37,0.87,6.54,1.03,9.48"/>
</g>
<g>
	<path class="st2" d="M180.39,239.81c0,0,0.7-8.29,5.25-8.07c3.65,0.17,5.47,5.16,6.04,7.14c0.17,0.58-0.14,1.2-0.71,1.41
		c-0.14,0.05-0.33,0.12-0.6,0.23C185.99,242.26,181.69,240.42,180.39,239.81z"/>
	<path class="st0" d="M144.04,223.66c-1.27,0.53-2.04,1.84-1.9,3.21c0.57,5.37-0.13,8.6,0.43,10.5c0.48,1.61,1.84,2.79,3.5,3.03
		c5.8,0.85,9.49,1.46,16.96,1.45c7.07-0.01,13.47-0.57,19.04-1.36c1.89-0.27,3.41-1.68,3.81-3.54c0.35-1.63,0.7-3.54,0.95-5.66
		c0.39-3.34,0.63-7.55,0.43-12.46c-0.05-1.26-0.96-2.33-2.2-2.58C177.13,214.65,164.22,215.24,144.04,223.66z"/>
	<path class="st3" d="M165.25,228.54c0.96,4.23,6.67,6.67,11.22,5.92c5.16-0.85,10.73-4.39,9.77-11.21
		c-0.9-6.38-5.74-7.08-9.77-6.99C170.19,216.39,164.09,223.38,165.25,228.54z"/>
	<path class="st1" d="M187.19,217.51c0.31,5.48,0.05,10.14-0.37,13.77c-0.25,2.13-0.59,4.03-0.95,5.66
		c-0.4,1.86-1.92,3.27-3.81,3.54c-5.57,0.79-11.97,1.35-19.04,1.36c-7.47,0.01-11.16-0.59-16.96-1.45c-1.66-0.24-3.02-1.42-3.5-3.03
		c-0.6-2.01,0.23-5.49-0.54-11.41"/>
	<path class="st2" d="M159.57,241.84c0,0-0.11-6.91,5.73-7.35c3.47-0.26,5.67,4.69,6.43,6.73c0.2,0.55-0.14,1.06-0.66,1.34
		c-0.31,0.16-0.73,0.27-1.59,0.43C165.11,243.76,160.88,242.42,159.57,241.84z"/>
	<path class="st2" d="M173.58,241.51c-0.6-4.41,1.83-8.76,5.48-8.76c3.26,0,6.85,3.87,7,7.63c0.02,0.5-0.26,0.98-0.7,1.21
		l-0.49,0.26C180.39,244.2,175.47,242.41,173.58,241.51z"/>
</g>
<g>
	<path class="st0" d="M103.79,177.06c-4.18-28.93-17.44-15.37-24.46-5.65l1.64,6.49c0,0,5,37,67.59,34.67c0,0,6.06-0.38,13.56-3.51
		C143.21,211.33,108.53,209.9,103.79,177.06z"/>
	<path class="st3" d="M186.77,183.42c0,0,2.92-9.97,2.63-17.68c-0.3-7.71,2.88-28.85,2.88-28.85h0c1.14-8.09-4.74-15.33-12.91-15.33
		h-39.84H82c-8.22,0-14.17,7.85-11.96,15.76l6.8,24.27l2.49,9.81c7.02-9.72,20.29-23.28,24.46,5.65c4.74,32.83,39.42,34.27,58.33,32
		C170.8,205.44,181.41,198.12,186.77,183.42z"/>
	<path class="st1" d="M71.15,127.88c-1.56,2.74-2.09,6.1-1.15,9.46l6.8,24.27l4.13,16.31c0,0,5,37,67.59,34.67
		c0,0,10.34-0.65,20.72-7.24"/>
	<path class="st1" d="M185.99,185.94c0.6-1.92,1.33-4.04,2.07-7.18c0.46-1.95,1.09-4.78,1.35-8.12"/>
	<path class="st4" d="M182.68,163.56c0.62-1.03,2.19-0.68,2.31,0.52c0.51,5.11,0.45,15.07-6.07,22.59
		C170.38,196.52,174.51,177.14,182.68,163.56z"/>
</g>
<g>
	<path class="st0" d="M129.06,208.14c-24.61-8.13-18.78-23.04-32.76-24.9l-14.49-1.92c0.2,0.84,0.39,1.6,0.55,2.26
		c1.76,7.41,1.81,20.25,1.81,20.25s0.54,9.29,1.02,17.02c0.18,2.86,1.12,5.64,2.78,7.98c3.31,4.65,9.72,9.51,22.15,10.03
		c14.25,0.6,21.7-3.91,25.43-7.77c1.18-1.22,2-2.76,2.32-4.43c1.2-6.26,5.24-13.19,7.61-13.56c1.05-0.17,2.05-0.33,2.99-0.49
		L129.06,208.14z"/>
	<path class="st1" d="M85.25,222.01c-0.5-7.93-1.09-18.19-1.09-18.19s-0.05-12.84-1.81-20.25c-0.16-0.66-0.34-1.43-0.55-2.26"/>
	<path class="st1" d="M148.46,212.6c-0.94,0.16-1.94,0.32-2.99,0.49c-2.47,0.39-6.76,7.9-7.75,14.35"/>
</g>
<g>
	<path class="st0" d="M86.75,220.67c-0.9,0.2-1.51,1.02-1.46,1.94c0.14,2.26,0.27,4.3,0.38,5.81c0.28,3.98,0.6,7.47,0.92,9.78
		c0.3,2.13,1.31,3.17,3.02,3.43c6.3,0.94,13.62,1.61,21.77,1.59c7.9-0.02,15.02-0.69,21.16-1.61c1.73-0.26,3.13-1.54,3.54-3.24
		c0-0.01,0.01-0.02,0.01-0.04c0.48-2,1.07-5.15,1.49-9.76c0-0.01,0-0.01,0-0.02c0.14-1.46-0.42-2.89-1.52-3.86
		C130.94,220.18,117.75,213.74,86.75,220.67z"/>
	<path class="st1" d="M137.73,227.43c-0.06,0.38-0.11,0.76-0.14,1.13c-0.43,4.61-1.01,7.76-1.49,9.76c0,0.01-0.01,0.02-0.01,0.04
		c-0.41,1.71-1.84,2.98-3.57,3.25c-6.14,0.92-13.24,1.59-21.13,1.61c-8.15,0.02-15.47-0.65-21.77-1.59
		c-1.71-0.26-2.72-1.3-3.02-3.43c-0.33-2.31-0.64-5.79-0.92-9.78c-0.12-1.64-0.26-3.91-0.42-6.41"/>
	<path class="st3" d="M134.16,231.31c-1.14,4.23-7.94,6.67-13.35,5.92c-6.13-0.85-12.76-4.39-11.62-11.21
		c1.07-6.38,6.83-7.08,11.62-6.99C128.28,219.16,135.55,226.15,134.16,231.31z"/>
	<path class="st2" d="M100.07,242.8c0,0,0.41-6.9,6.27-6.9c3.48,0,5.3,5.1,5.9,7.2c0.16,0.57-0.22,1.05-0.76,1.28
		c-0.32,0.14-0.75,0.22-1.61,0.31C105.45,245.13,101.33,243.49,100.07,242.8z"/>
	<path class="st2" d="M114.12,243.18c-0.6-4.41,2.34-8.76,5.99-8.76c3.26,0,6.85,3.87,7,7.63c0.02,0.51-0.26,0.98-0.7,1.21
		l-0.49,0.26C121.43,245.88,116,244.08,114.12,243.18z"/>
	<path class="st2" d="M128.65,242.12c0,0-0.88-8.32,4.61-8.35c3.47-0.02,5.13,4.88,5.67,6.89c0.2,0.75-0.14,1.54-0.82,1.9
		c-0.02,0.01-0.04,0.02-0.06,0.03C134.02,244.59,129.9,242.74,128.65,242.12z"/>
</g>
<g>
	<path class="st3" d="M97.06,148.92c-7.99-18.11-17.4-22.31-23.11-22.99c-2.84-0.34-5.45,1.63-5.93,4.45c0,0,0.38,1.4,1.97,9.36
		c3.77,1.73,7.78,4.86,6.77,10.18c-1.27,6.66-8.87,28.81-6.99,42.19c1.27,0.75,2.64,1.33,4.09,1.72c3.01,0.81,6.13,0.72,9.04-0.12
		c-1.17-3.74,0.06-12.41,4.2-22.06c0.47-1.1,2.08-0.97,2.36,0.2c0.87,3.65,1.22,12.81-0.36,18.61c0.02-0.01,0.03-0.03,0.05-0.04
		c2.45-2,4.02-4.87,4.43-8.01c0.53-4.13,1.06-8.81,1.54-14.08c0.26-2.86,0.97-5.66,2.11-8.29l0.04-0.1v0
		C98.68,156.39,98.6,152.42,97.06,148.92z"/>
	<path class="st0" d="M69.76,192.11c-1.89-13.38,5.72-35.53,6.99-42.19c1.02-5.33-3-8.46-6.77-10.18c0.15,0.75,0.31,1.56,0.48,2.44
		c0.47,2.38-1.46,9.03-2.15,11.36c-1.37,4.59-4.14,12.92-6.34,21.95c-0.72,2.95-0.46,6.07,0.8,8.84
		C64.26,187.58,66.71,190.32,69.76,192.11z"/>
	<path class="st3" d="M89.45,171.85c-0.28-1.17-1.88-1.3-2.36-0.2c-4.14,9.65-5.38,18.32-4.2,22.06c2.24-0.65,4.36-1.75,6.2-3.24
		C90.67,184.67,90.32,175.5,89.45,171.85z"/>
	<path class="st4" d="M89.45,171.85c-0.28-1.17-1.88-1.3-2.36-0.2c-4.14,9.65-5.38,18.32-4.2,22.06c2.24-0.65,4.36-1.75,6.2-3.24
		C90.67,184.67,90.32,175.5,89.45,171.85z"/>
	<path class="st1" d="M93.51,182.9c0.55-4.24,1.1-9.07,1.59-14.53c0.26-2.87,0.97-5.68,2.11-8.33l0.04-0.1"/>
	<path class="st1" d="M68.02,130.38c0,0,0.45,1.68,2.45,11.8c0.47,2.38-1.46,9.03-2.15,11.36c-1.41,4.7-4.28,13.34-6.51,22.63"/>
</g>
<g>
	<path class="st2" d="M68.26,211.12l-7.82-4.28c0,0-2.06,6.35,2.27,12.44c1.09,1.53,3.11,1.07,3.66-0.75L68.26,211.12z"/>
	<path class="st3" d="M86.49,195.06c-4.2,2.78-5.13-5.59-2.25-16.01c-5.06-1.66-9.78-2.43-13.74-2.73
		c-1.94,12.52-1.48,25.57,8.63,26.3c6.22,0.45,9.93-2.28,12.14-5.53c0.65-3.43,1.53-8.84,2.24-14.05c-1.07-0.58-2.13-1.11-3.19-1.6
		C90.11,186.84,88.93,193.44,86.49,195.06z"/>
	<path class="st0" d="M79.13,202.62c-10.11-0.72-10.56-13.77-8.63-26.3c-3.74-0.28-6.81-0.15-8.84,0.03
		c-2.46,10.61-4.13,22.98-1.6,30.03c0.41,1.12,1.19,2.07,2.21,2.7c4.62,2.83,11.31,6.15,23.96,0.14c1.39-0.66,2.85-2.41,3.24-3.91
		c0.47-1.83,1.1-4.54,1.8-8.23C89.06,200.34,85.35,203.06,79.13,202.62z"/>
	<path class="st3" d="M86.49,195.06c2.44-1.61,3.61-8.22,3.82-13.62c-2.06-0.95-4.09-1.74-6.07-2.39
		C81.37,189.46,82.29,197.84,86.49,195.06z"/>
	<path class="st4" d="M86.49,195.06c2.44-1.61,3.61-8.22,3.82-13.62c-2.06-0.95-4.09-1.74-6.07-2.39
		C81.37,189.46,82.29,197.84,86.49,195.06z"/>
	<path class="st1" d="M61.8,176.16c-2.65,11.05-4.4,23.01-1.7,30.34c0.47,1.27,1.48,2.18,2.64,2.87c4.59,2.74,11.22,5.64,23.39-0.1
		c1.51-0.71,2.78-1.83,3.2-3.44c0.93-3.5,2.59-10.82,4.17-22.93"/>
	<path class="st2" d="M89.91,204.01c0,0,0.46,4.23,0.27,7.7c-0.05,1.02-1.26,1.53-2.02,0.86l-5.38-4.72
		c-0.46-0.4-0.47-1.11-0.03-1.53C83.99,205.14,86.62,203.21,89.91,204.01z"/>
	<path class="st2" d="M74.87,211.47l-7.27-3.98c-0.74-0.4-1.66,0.04-1.78,0.88c-0.38,2.49-0.51,7.4,2.88,12.16
		c1.21,1.7,3.46,1.18,4.07-0.83L74.87,211.47z"/>
	<path class="st2" d="M82.36,210.34l-7.56-2.6c-0.68-0.24-1.39,0.28-1.38,1c0.02,2.33,0.63,7.05,4.64,11.04
		c1.4,1.4,3.42,0.55,3.67-1.43L82.36,210.34z"/>
</g>
<path class="st5" d="M47.58,78.1c-1.27,0.55-2.62,1.1-4.06,1.67c0,0-1.74,1.94-2.05,4.38C42.6,82.27,44.57,80.26,47.58,78.1z"/>
<path class="st5" d="M53.76,120.55c-0.75,1.1-1.07,2.37-1,3.61c0.45-1.49,1.13-3.16,2.08-5.23
	C54.47,119.5,54.11,120.04,53.76,120.55z"/>
<path class="st0" d="M64.66,67.83c1.79-1.81,2.42-4.46,1.64-6.87c-0.91-2.81-3.26-6.8-9.16-10.79c-4.59-3.1-4.76-6.68-4.02-9.22
	c-0.88,1.18-1.43,2.61-1.52,4.34c-0.92,5.53,3.24,17.7,3.24,17.7s3.25,8.1-5.83,14.13c-0.5,0.33-0.97,0.66-1.43,0.98
	C57.46,73.84,62.31,70.2,64.66,67.83z"/>
<path class="st0" d="M100.74,36.31c1.96-0.1,3.86-0.75,5.44-1.92c3.21-2.37,6.95-7.33,2.05-16.31c-3.52-6.46-3.04-9.94-1.53-11.81
	c-2.06,0.51-3.16,1.23-3.16,1.23s-7.21,3.67-11.21,22.44c-1.07,5.01-8.9,5.93-14.14,5.98C86.93,36.83,96.55,36.52,100.74,36.31z"/>
<path class="st3" d="M197.21,118.41l0.36-4.75l-0.3-18.93c-0.06-3.67-0.53-7.32-1.44-10.87c-4.67-18.34-12.69-37.63-33.8-46.74
	c-16.34-7.05-22.69-17.5-35.08-25.71c-9.46-6.27-16.48-6.07-20.25-5.14c-1.51,1.87-2,5.35,1.53,11.81
	c4.9,8.98,1.16,13.94-2.05,16.31c-1.58,1.17-3.48,1.82-5.44,1.92c-4.19,0.21-13.81,0.53-22.55-0.39c-2.74,0.02-4.78-0.19-4.78-0.19
	s-15.33-1.46-20.3,5.22c-0.73,2.54-0.57,6.12,4.02,9.22c5.91,3.99,8.25,7.98,9.16,10.79c0.78,2.42,0.15,5.07-1.64,6.87
	c-2.35,2.38-7.2,6.01-17.08,10.27c-3.01,2.16-4.98,4.17-6.11,6.05c-0.26,2.12,0.56,4.61,4.56,6.52c8.6,4.12,14.88,4.84,15.42,12.19
	c0.32,4.42-3.5,11.29-6.6,16.06c-0.95,2.07-1.63,3.74-2.08,5.23c0.09,1.66,0.88,3.27,2.29,4.35c1.99,1.53,4.85,3.26,8.9,4.82
	c6.71,2.59,10.14,7.59,11.7,10.72c0.56,0.19,62.88,21.93,115.98-0.29c0.75-0.31,0.24-1.56,0.42-2.16
	C196.3,127.29,197.21,118.41,197.21,118.41z"/>
<path class="st0" d="M61.44,102.86c-0.54-7.35-6.81-8.07-15.42-12.19c-4-1.92-4.82-4.41-4.56-6.52c-3.27,5.44,0.49,9.81,6.57,13.64
	c0,0,6.17,3.63,8.27,5.83c3.38,3.54,1.92,8.2,0.32,11.52c-0.67,1.41-1.27,2.66-1.79,3.79C57.94,114.15,61.76,107.28,61.44,102.86z"
	/>
<path class="st0" d="M63.95,133.34c-4.05-1.56-6.91-3.3-8.9-4.82c-1.41-1.09-2.2-2.69-2.29-4.35c-0.7,2.33-0.81,4.23-0.41,6.53
	c1.22,6.97,17.57,6.2,23.29,13.36c0,0,0,0,0,0C74.09,140.93,70.66,135.93,63.95,133.34z"/>
<path class="st2" d="M197.21,118.41c0,0-0.92,8.88-5.16,23.18c-0.18,0.61-0.33,1.36-0.42,2.16"/>
<path class="st2" d="M197.21,128.93c0,0,0.96,7.53-5.15,12.67l-1.45-8.85"/>
<path class="st2" d="M191.44,130.38c0,0,0.85,6.67-3.62,12.38c-0.9,1.15-2.75,0.68-2.98-0.76l-1.17-7.13"/>
<path class="st3" d="M197.47,113.67c0.03,1.69,0.27,3.38,0.71,5.01c0.35,1.28,0.75,2.54,1.13,3.81c0.79,2.64-1.25,5.92-3.29,7.41
	c-0.34,0.25-0.71,0.52-3.03,1.65c-10.35,5.03-20.65,9.92-74.69,7.26c-4.64-0.23-11.02-1.2-18.66-2.38
	C99.65,136.42,141.76,112.12,197.47,113.67z"/>
<path class="st0" d="M178.45,115.43c-0.5,5.67-18.89,8.53-29.67,8.86c-8.83,0.27-27.05-0.69-28.06-6.22
	c-0.96-5.24,13.57-14.51,28.23-15.18C163.57,102.23,178.92,110.1,178.45,115.43z"/>
<path class="st4" d="M104.16,127.65c-1.14,4.48-7.94,7.07-13.35,6.27c-6.13-0.9-12.76-4.65-11.62-11.88
	c1.07-6.76,6.83-7.5,11.62-7.41C98.28,114.78,105.54,122.18,104.16,127.65z"/>
<path class="st4" d="M186.07,118.44c0.53,4.12,3.68,6.5,6.19,5.77c2.85-0.83,5.92-4.28,5.39-10.94c-0.5-6.23-3.17-6.9-5.39-6.82
	C188.79,106.59,185.42,113.41,186.07,118.44z"/>
<path class="st0" d="M100.62,136.55c0,0,3.56-0.88,23.39,0.39s63.56,1.01,75.59-12.6c0,0,1.24,7.53-22.13,12.79
	C154.91,142.21,111.24,138.57,100.62,136.55z"/>
<path class="st6" d="M134.33,139.41c-1.95,4.56-3.57,9.4-8.36,9.23c-4.73-0.16-6.48-7.54-6.53-7.74c-3.74,10.84-8.19,8.88-8.19,8.88
	c-7.99-3.31-8.36-12.69-8.37-12.88c6.27,0.96,11.56,1.71,15.56,1.91c0.55,0.03,1.1,0.05,1.64,0.08
	C125.23,139.13,129.96,139.3,134.33,139.41z"/>
<path class="st1" d="M99.75,136.42c7.64,1.18,14.02,2.15,18.66,2.38c54.03,2.66,64.34-2.23,74.69-7.26c2.32-1.13,2.69-1.4,3.03-1.65
	c2.03-1.49,4.08-4.76,3.29-7.41c-0.38-1.27-0.78-2.52-1.13-3.81c-0.45-1.63-0.69-3.32-0.71-5.01l-0.3-18.93
	c-0.06-3.67-0.53-7.32-1.44-10.87c-4.67-18.34-12.69-37.63-33.8-46.74c-16.34-7.05-22.69-17.5-35.08-25.71
	c-14.62-9.7-23.41-3.92-23.41-3.92s-7.21,3.67-11.21,22.44c-1.62,7.62-18.92,5.79-18.92,5.79S52.21,33.7,51.6,45.29
	c-0.92,5.53,3.24,17.7,3.24,17.7s3.25,8.1-5.83,14.13c-13.44,8.92-9.46,15.32-0.97,20.67c0,0,6.17,3.63,8.27,5.83
	c3.38,3.54,1.92,8.2,0.32,11.52c-3.85,8.01-5.07,10.97-4.27,15.55c1.22,6.97,17.57,6.2,23.29,13.36"/>
<path class="st1" d="M102.86,136.89c0,0,0.3,9.54,8.37,12.89c0,0,4.97,2.21,8.82-10.88"/>
<path class="st1" d="M119.42,140.89c0,0,1.73,7.58,6.53,7.75c4.79,0.16,6.39-4.61,8.34-9.18"/>
<path class="st0" d="M142.31,143.53c6.95,0.09,18.68-0.01,28.36-1.36c1.34-0.19,1.89,1.67,0.66,2.23
	c-6.12,2.79-16.58,5.62-29.39,1.3C140.74,145.29,141.04,143.51,142.31,143.53z"/>
<path class="st4" d="M183.06,72.76c1.67,1.03,3.69-0.66,2.97-2.48c-3.09-7.8-10.63-22.24-25.74-28.29
	C140.51,34.06,161.03,59.13,183.06,72.76z"/>
<path class="st2" d="M134.22,89.63c6.42,14.41-4.19,34.69-20.45,36.69c-10.99,1.35-22.61-5.89-26.19-16.45
	c-5.21-15.39,8.13-33.45,23.79-34.21C120.78,75.2,130.38,81.01,134.22,89.63z"/>
<ellipse transform="matrix(0.2424 -0.9702 0.9702 0.2424 -8.5809 188.6538)" class="st7" cx="116.5" cy="99.82" rx="11.22" ry="10.12"/>
<path class="st2" d="M163.31,88.45c-2.52,13.52,6.42,31.8,16.97,33.03c7.14,0.83,13.74-6.28,14.87-16.15
	c1.65-14.38-8.79-30.52-18.83-30.62C170.3,74.65,164.82,80.37,163.31,88.45z"/>
<ellipse transform="matrix(0.9819 -0.1896 0.1896 0.9819 -15.415 35.116)" class="st7" cx="175.84" cy="98.13" rx="6.44" ry="11"/>
<ellipse transform="matrix(0.5 -0.866 0.866 0.5 -26.7203 145.3549)" class="st6" cx="112.52" cy="95.82" rx="3.27" ry="2.95"/>
<ellipse class="st6" cx="173.17" cy="94.4" rx="1.89" ry="3.19"/>
</svg>
