<?xml version="1.0" encoding="utf-8"?>
<!-- Generator: Adobe Illustrator 26.4.0, SVG Export Plug-In . SVG Version: 6.00 Build 0)  -->
<svg version="1.1" id="레이어_1" xmlns="http://www.w3.org/2000/svg" xmlns:xlink="http://www.w3.org/1999/xlink" x="0px"
	 y="0px" viewBox="0 0 50 50" style="enable-background:new 0 0 50 50;" xml:space="preserve">
<style type="text/css">
	.st0{fill:#FFFFFF;}
</style>
<path class="st0" d="M22.05,19.98c0,2.29,0,4.55,0,6.74c-0.66-0.03-1.32-0.13-1.97-0.08c-1.46,0.09-2.68,0.74-3.63,1.86
	c-0.96,1.14-1.37,2.47-1.23,3.95c0.17,1.77,1.07,3.13,2.59,4.03c2.11,1.26,4.64,0.96,6.42-0.75c0.94-0.9,1.48-2.01,1.57-3.32
	c0.02-0.34,0.03-0.69,0.03-1.03c0-8.31,0-16.63,0-24.94c0-0.13,0-0.25,0-0.39c2.24,0,4.46,0,6.67,0c0.25,5.11,3.42,8.88,9,9.09
	c0,2.19,0,4.38,0,6.61c-1.61-0.12-3.17-0.38-4.7-0.85c-1.54-0.47-2.98-1.12-4.25-2.23c-0.01,0.15-0.02,0.25-0.02,0.34
	c0,4.13-0.02,8.27,0.01,12.4c0.01,1.6-0.17,3.15-0.72,4.65c-0.97,2.61-2.64,4.65-5.01,6.12c-1.62,1.01-3.39,1.59-5.29,1.74
	c-1.98,0.16-3.91-0.13-5.74-0.93c-2.76-1.21-4.83-3.15-6.15-5.87c-0.62-1.27-0.98-2.62-1.11-4.04c-0.17-1.78,0.03-3.51,0.63-5.19
	c1.01-2.77,2.79-4.92,5.34-6.41c1.39-0.81,2.88-1.31,4.47-1.52C20,19.83,21.02,19.89,22.05,19.98z"/>
</svg>
