<?xml version="1.0" encoding="utf-8"?>
<!-- Generator: Adobe Illustrator 26.4.0, SVG Export Plug-In . SVG Version: 6.00 Build 0)  -->
<svg version="1.1" id="레이어_1" xmlns="http://www.w3.org/2000/svg" xmlns:xlink="http://www.w3.org/1999/xlink" x="0px"
	 y="0px" viewBox="0 0 50 50" style="enable-background:new 0 0 50 50;" xml:space="preserve">
<style type="text/css">
	.st0{fill:#FFFFFF;}
</style>
<path class="st0" d="M36.12,12.11c0,0,2.46,2.05,5.67,0c0,0,0.41,5.26-2.46,6.41c0,0-0.16,27.28-27.03,19.31l-4.11-1.64
	c0,0,9.78,0.49,10.85-3.45c0,0-5.59-0.49-6.57-3.7l3.86-0.99c0,0-6.16-0.9-5.83-6.41l3.2,1.07c0,0-5.75-3.62-2.96-10.6
	c0,0,7.31,9.94,15.04,7.31c0,0-0.25-6,3.53-7.97S36.12,12.11,36.12,12.11z"/>
</svg>
